<?xml version="1.0" encoding="UTF-8"?>
<svg version="1.1" xmlns="http://www.w3.org/2000/svg" width="512" height="512">
<path d="M0 0 C3.29133806 1.10481842 6.47859469 2.42810227 9.6796875 3.76953125 C11.09663406 4.35180733 11.09663406 4.35180733 12.54220581 4.94584656 C15.65622196 6.22738871 18.76552827 7.51997522 21.875 8.8125 C24.06117945 9.71437595 26.24770876 10.61540426 28.43457031 11.515625 C32.99450125 13.39342644 37.55288979 15.27490576 42.11035156 17.15869141 C51.93835871 21.2168805 61.78785297 25.22225445 71.63583374 29.23165894 C90.11656213 36.75851035 108.57663911 44.33374334 127 52 C127 52.66 127 53.32 127 54 C102.30705245 64.62749721 77.55832364 75.11926379 52.78613281 85.56054688 C44.28992805 89.14199647 35.796256 92.72944375 27.3024292 96.31652832 C22.61839344 98.29460636 17.93418801 100.27228253 13.25 102.25 C11.37499919 103.04166475 9.49999919 103.83333141 7.625 104.625 C-3.62500002 109.37500001 -3.62500002 109.37500001 -6.43707275 110.56231689 C-8.3134995 111.35458777 -10.18992365 112.1468648 -12.06634521 112.93914795 C-16.73199483 114.90912037 -21.39768839 116.87898858 -26.06347656 118.84863281 C-34.76112223 122.52043849 -43.45834023 126.19324692 -52.15405273 129.86962891 C-56.21068887 131.58462432 -60.2675673 133.29904617 -64.32446289 135.01342773 C-66.23718094 135.82189948 -68.14978347 136.63064458 -70.06225586 137.43969727 C-79.27463008 141.33682868 -88.49152369 145.22247551 -97.734375 149.046875 C-98.45715637 149.34716614 -99.17993774 149.64745728 -99.92462158 149.95684814 C-104.88208373 152 -104.88208373 152 -106 152 C-102.50419825 106.64905843 -71.8355554 60.98024221 -41 29 C-40.38463379 28.35740234 -39.76926758 27.71480469 -39.13525391 27.05273438 C-30.30938411 17.87717276 -21.2388267 9.56843001 -11 2 C-10.35546875 1.38769531 -9.7109375 0.77539062 -9.046875 0.14453125 C-5.97524091 -1.57300461 -3.28476146 -0.77869591 0 0 Z " fill="#0099FF" transform="translate(112,49)"/>
<path d="M0 0 C1.47888199 0.0002417 1.47888199 0.0002417 2.98764038 0.00048828 C16.04923894 0.01534352 28.83077102 0.34787437 41.72969055 2.59147644 C42.50734929 2.72651172 43.28500803 2.86154699 44.08623219 3.00067425 C44.67652556 3.10357675 45.26681894 3.20647924 45.875 3.3125 C46.2628064 4.2843071 46.65061279 5.2561142 47.0501709 6.25737 C54.64359657 25.28143874 62.26078636 44.29560118 69.93826294 63.285923 C71.09477597 66.14706944 72.25053252 69.00852021 73.40600586 71.87008667 C73.78823807 72.81669096 74.17047028 73.76329525 74.56428528 74.73858452 C75.33545859 76.64848287 76.10660734 78.55839114 76.87773132 80.4683094 C78.84942842 85.35089696 80.82313992 90.23265611 82.80029297 95.11303711 C84.76189566 99.95541343 86.71849933 104.79978176 88.67164612 109.64557457 C89.40662594 111.46642948 90.14344933 113.28654141 90.88218689 115.10587502 C91.8982404 117.60880647 92.907892 120.11422753 93.91601562 122.62036133 C94.21815475 123.36024796 94.52029388 124.10013458 94.83158875 124.86244202 C96.02026452 127.83376752 96.875 130.08047123 96.875 133.3125 C92.641242 132.63465817 88.85331298 131.22602531 84.91015625 129.6015625 C84.22229538 129.32221359 83.53443451 129.04286469 82.82572937 128.75505066 C80.52781764 127.82030232 78.23265889 126.87898535 75.9375 125.9375 C74.28884816 125.2649455 72.6400823 124.59267043 70.99121094 123.9206543 C56.2467703 117.90351904 41.53288155 111.81175888 26.81835938 105.72192383 C12.54143984 99.8151146 -1.75502147 93.95737203 -16.0625 88.125 C-17.60396698 87.49659714 -17.60396698 87.49659714 -19.17657471 86.85549927 C-20.19934509 86.43855804 -21.22211548 86.02161682 -22.27587891 85.59204102 C-24.31543435 84.76059086 -26.35498517 83.92912938 -28.39453125 83.09765625 C-29.39009033 82.69180801 -30.38564941 82.28595978 -31.41137695 81.86781311 C-41.0296087 77.94575477 -50.64103553 74.00720049 -60.25 70.0625 C-61.41996017 69.58221344 -61.41996017 69.58221344 -62.61355591 69.09222412 C-65.73222022 67.81187189 -68.85082916 66.53138498 -71.96934509 65.25067139 C-77.8487305 62.83616359 -83.72889139 60.42355056 -89.609375 58.01171875 C-90.91894669 57.47458755 -90.91894669 57.47458755 -92.25497437 56.92660522 C-95.64019771 55.53813794 -99.02542494 54.14968015 -102.41070557 52.76135254 C-113.31923854 48.28753082 -124.22389479 43.804391 -135.125 39.3125 C-135.125 38.6525 -135.125 37.9925 -135.125 37.3125 C-92.78720779 13.27343738 -48.82981168 -0.16341459 0 0 Z " fill="#0099FF" transform="translate(256.125,-0.3125)"/>
<path d="M0 0 C-0.69171084 4.62722907 -2.41197929 8.73531023 -4.21875 13.015625 C-4.54818604 13.80648499 -4.87762207 14.59734497 -5.21704102 15.41217041 C-6.30715564 18.02655813 -7.4036288 20.63823062 -8.5 23.25 C-9.2706683 25.09550025 -10.0408425 26.9412069 -10.81054688 28.78710938 C-12.4108433 32.62385107 -14.01326802 36.45969343 -15.6171875 40.29492188 C-18.91322486 48.18072462 -22.18343592 56.07720236 -25.45361328 63.97375488 C-27.21782805 68.23302048 -28.98402168 72.49146538 -30.75 76.75 C-31.45834265 78.45832947 -32.16667598 80.1666628 -32.875 81.875 C-39.95833333 98.95833333 -47.04166667 116.04166667 -54.125 133.125 C-54.47557465 133.97050415 -54.82614929 134.8160083 -55.18734741 135.68713379 C-55.89618768 137.39668853 -56.60502964 139.10624256 -57.31387329 140.8157959 C-59.0769644 145.06793599 -60.84002673 149.32008801 -62.60302734 153.57226562 C-65.88260481 161.48218708 -69.16245458 169.39199527 -72.44329834 177.3013916 C-73.97036531 180.98286463 -75.4972731 184.66440367 -77.02416992 188.34594727 C-77.74267824 190.07823912 -78.46126203 191.81049967 -79.17993164 193.54272461 C-83.80391035 204.688066 -88.41135171 215.84006442 -93 227 C-93.99 227 -94.98 227 -96 227 C-119.36771276 185.84459461 -133.47331385 142.45223877 -133.26074219 94.85253906 C-133.25001144 92.00303889 -133.26071223 89.15416887 -133.2734375 86.3046875 C-133.28072576 75.0603658 -132.61980852 64.12834281 -131 53 C-115.19833564 46.11947718 -99.32246101 39.46002992 -83.33840942 33.01559448 C-69.44641469 27.41374502 -55.591227 21.7261162 -41.75 16 C-40.30309784 15.40141678 -40.30309784 15.40141678 -38.82696533 14.79074097 C-36.94042379 14.01016218 -35.05393795 13.22944877 -33.16751099 12.44859314 C-31.35759405 11.69968315 -29.54743911 10.95134805 -27.73703003 10.20362854 C-23.47594573 8.4431317 -19.21907285 6.67379598 -14.97070312 4.8828125 C-14.18512024 4.55369873 -13.39953735 4.22458496 -12.59014893 3.88549805 C-11.12507251 3.271495 -9.66169188 2.65342335 -8.20037842 2.03051758 C-5.29511852 0.81732215 -3.18306177 0 0 0 Z " fill="#0099FF" transform="translate(133,164)"/>
<path d="M0 0 C34.01351603 3.4155832 70.00496552 25.89089353 96 47 C96.89203125 47.70769531 97.7840625 48.41539063 98.703125 49.14453125 C103.86682894 53.28537034 108.69620949 57.54677105 113.30078125 62.30078125 C115.06735887 64.13666504 115.06735887 64.13666504 117.5625 66 C120.41639114 68.34165427 122.67354094 70.94790908 125.0625 73.75390625 C127.06913857 76.08015056 129.15580622 78.31498132 131.25 80.5625 C135.04856257 84.80795228 138.64946473 89.17609491 142.125 93.6875 C142.62290039 94.3050415 143.12080078 94.92258301 143.63378906 95.55883789 C144.0872168 96.16203857 144.54064453 96.76523926 145.0078125 97.38671875 C145.41660645 97.91483154 145.82540039 98.44294434 146.24658203 98.98706055 C148.672185 105.46764917 144.12152481 113.00470606 141.57421875 118.84375 C141.11917465 119.90541885 140.66413055 120.96708771 140.19529724 122.06092834 C138.70041879 125.54399593 137.19394772 129.02192257 135.6875 132.5 C134.64544674 134.92271959 133.60427831 137.34581994 132.56396484 139.76928711 C130.69681956 144.11788097 128.82708247 148.46534071 126.95389557 152.81133556 C122.39316154 163.39412943 117.88438635 173.99886044 113.38052368 184.60595703 C111.40403281 189.2602541 109.42516217 193.91353708 107.4453125 198.56640625 C107.08168106 199.42098419 106.71804962 200.27556213 106.34339905 201.15603638 C102.24654063 210.77822816 98.12469745 220.38971543 94 230 C93.34 230 92.68 230 92 230 C91.68411423 229.20695465 91.68411423 229.20695465 91.36184692 228.39788818 C82.0569458 205.04239646 72.73634734 181.6945169 63.1875 158.4375 C53.73289795 135.40753008 44.42816739 112.31779016 35.1239624 89.22673035 C31.08888079 79.21480065 27.03812508 69.20927026 22.9831543 59.2053833 C19.98442176 51.80534738 16.99147322 44.40297293 14 37 C13.65952637 36.15771851 13.31905273 35.31543701 12.96826172 34.44763184 C10.93497493 29.41636188 8.90568602 24.3835117 6.8821106 19.34832764 C6.25852753 17.79808317 5.63377474 16.24830864 5.00778198 14.69903564 C4.15685568 12.59232479 3.31026018 10.48392678 2.46484375 8.375 C1.986521 7.18648437 1.50819824 5.99796875 1.01538086 4.7734375 C0 2 0 2 0 0 Z " fill="#0099FF" transform="translate(320,8)"/>
<path d="M0 0 C-0.52926335 7.62620377 -2.43082704 14.33715431 -4.875 21.5625 C-5.27283691 22.74199219 -5.67067383 23.92148437 -6.08056641 25.13671875 C-21.30532295 69.11019418 -49.78833701 112.79225638 -87.4453125 140.953125 C-90.10295801 142.9455664 -90.10295801 142.9455664 -92.2421875 145.671875 C-95.16508787 148.75769113 -96.83824477 150.0004518 -101 151 C-107.79718314 149.83200122 -114.10144409 146.50243592 -120.30163574 143.60749817 C-127.18925801 140.40111841 -134.23906646 137.61938691 -141.29440308 134.80700684 C-145.25101426 133.22475611 -149.19759186 131.61791084 -153.14453125 130.01171875 C-153.94717911 129.68535431 -154.74982697 129.35898987 -155.57679749 129.0227356 C-168.85000927 123.62342102 -182.10860813 118.18844942 -195.35818481 112.73141479 C-199.5439994 111.00795623 -203.73255065 109.29154905 -207.92527771 107.5849762 C-210.74382647 106.4364695 -213.55911872 105.28002818 -216.375 104.125 C-217.36153564 103.72627686 -218.34807129 103.32755371 -219.36450195 102.91674805 C-220.24195068 102.55492432 -221.11939941 102.19310059 -222.0234375 101.8203125 C-222.77544434 101.51367676 -223.52745117 101.20704102 -224.30224609 100.89111328 C-226 100 -226 100 -227 98 C-210.31533001 90.46351996 -193.52154754 83.19533904 -176.6875 76 C-160.47782553 69.07108625 -144.28600278 62.10422626 -128.125 55.0625 C-111.88853734 47.9892468 -95.6385582 40.94824146 -79.375 33.9375 C-78.3171228 33.48144379 -77.25924561 33.02538757 -76.16931152 32.55551147 C-71.93426952 30.72983739 -67.69915475 28.90433229 -63.46392822 27.0790863 C-53.06163242 22.59603023 -42.66072177 18.10976973 -32.26104736 13.62063599 C-29.4546389 12.40937265 -26.64797871 11.19869401 -23.84130859 9.98803711 C-22.1311693 9.24987337 -20.42104476 8.51167545 -18.7109375 7.7734375 C-17.58002686 7.2858622 -17.58002686 7.2858622 -16.42626953 6.78843689 C-11.85237913 4.8129365 -7.29931529 2.79654498 -2.76016235 0.74234009 C-1 0 -1 0 0 0 Z " fill="#0099FF" transform="translate(505,315)"/>
<path d="M0 0 C4.35025508 3.68098507 6.6070128 8.33617177 9.1875 13.3125 C9.90824707 14.70214966 9.90824707 14.70214966 10.64355469 16.11987305 C22.85475991 40.18111268 30.96303992 66.33755591 35 93 C35.17732666 94.11737549 35.35465332 95.23475098 35.53735352 96.38598633 C37.08501813 107.16591464 37.33978878 117.82558423 37.31567383 128.70678711 C37.31252265 131.66623137 37.33603898 134.62466329 37.36132812 137.58398438 C37.38685939 143.39720502 37.22513818 149.19172975 37 155 C36.97726013 155.97439026 36.95452026 156.94878052 36.93109131 157.95269775 C36.5338341 170.40379987 36.5338341 170.40379987 34 176 C30.2457469 179.49694374 26.25957705 180.7918557 21.45135498 182.21221924 C16.72130511 183.73229378 12.2340506 185.8715497 7.69140625 187.87109375 C5.56834328 188.77703178 3.4436973 189.67926741 1.31762695 190.578125 C-0.33334488 191.27711914 -0.33334488 191.27711914 -2.01766968 191.99023438 C-3.71048569 192.70663086 -3.71048569 192.70663086 -5.4375 193.4375 C-10.22458856 195.46596354 -15.01096992 197.4960898 -19.796875 199.52734375 C-20.71681527 199.91759546 -20.71681527 199.91759546 -21.65534019 200.31573105 C-30.7585642 204.17861751 -39.84213172 208.0850755 -48.91377068 212.02153206 C-52.79137564 213.70327379 -56.67102856 215.38028918 -60.55045414 217.05782604 C-63.67645352 218.41031368 -66.80070887 219.76659189 -69.92160034 221.13082886 C-73.39592812 222.64783482 -76.87508681 224.15319745 -80.35546875 225.65625 C-81.39354675 226.11338882 -82.43162476 226.57052765 -83.50115967 227.04151917 C-84.44976868 227.44869675 -85.39837769 227.85587433 -86.37573242 228.27539062 C-87.20102951 228.63459595 -88.0263266 228.99380127 -88.87663269 229.3638916 C-91 230 -91 230 -94 229 C-93.62004883 228.07517822 -93.24009766 227.15035645 -92.84863281 226.19750977 C-84.58421262 206.07863043 -76.34093336 185.95123088 -68.125 165.8125 C-61.71527602 150.10132023 -55.30110805 134.39198639 -48.875 118.6875 C-48.32371429 117.34022324 -48.32371429 117.34022324 -47.7612915 115.96572876 C-45.91357235 111.45024784 -44.06570651 106.93482697 -42.21777344 102.41943359 C-39.60439341 96.03352466 -36.9917958 89.64729572 -34.37939453 83.26098633 C-32.51329879 78.69910495 -30.64702763 74.13729557 -28.78027344 69.57568359 C-25.27219211 61.00277132 -21.76607979 52.42906765 -18.26617432 43.85281372 C-16.61695069 39.81182787 -14.96671707 35.77125483 -13.31640625 31.73071289 C-12.5317218 29.80871837 -11.74752957 27.88652281 -10.96386719 25.96411133 C-9.87560457 23.29457015 -8.78563013 20.62573363 -7.6953125 17.95703125 C-7.37942169 17.18083939 -7.06353088 16.40464752 -6.73806763 15.60493469 C-4.59154009 10.3574508 -2.32875929 5.16910164 0 0 Z " fill="#0099FF" transform="translate(475,124)"/>
<path d="M0 0 C13.39891478 4.95809108 26.70382863 10.14851124 40 15.375 C41.18193939 15.8393042 42.36387878 16.3036084 43.58163452 16.78198242 C74.55026807 28.95413566 105.43363609 41.34005411 136.32046509 53.71792603 C148.8094597 58.72280457 161.30053656 63.72245816 173.79296875 68.71875 C174.67351236 69.07092087 175.55405598 69.42309174 176.46128273 69.78593445 C180.79189949 71.51792242 185.12254907 73.24982831 189.45321655 74.98168945 C196.71582339 77.88608829 203.97816733 80.79114436 211.24051857 83.69618225 C214.62192359 85.04878357 218.00334486 86.40134428 221.38476562 87.75390625 C223.25651042 88.50260417 225.12825521 89.25130208 227 90 C227 90.99 227 91.98 227 93 C186.65048242 116.21660264 143.29538552 129.42197435 96.59008789 129.31567383 C93.70094968 129.31251471 90.81284087 129.33607837 87.92382812 129.36132812 C55.36436437 129.49215227 55.36436437 129.49215227 48.74243164 124.19360352 C47.21466634 121.69519965 46.45275839 119.45060708 45.6875 116.625 C44.94501384 114.5200187 44.20004743 112.41591125 43.453125 110.3125 C43.07091797 109.1471875 42.68871094 107.981875 42.29492188 106.78125 C40.10662291 100.39128499 37.47087535 94.18619157 34.89205933 87.9460144 C33.60005207 84.80449415 32.33152665 81.65371888 31.06297302 78.50267029 C26.49470687 67.15693821 21.81845258 55.85689904 17.125 44.5625 C16.40096866 42.81838968 15.67700935 41.07424946 14.953125 39.33007812 C11.17087965 30.21764252 11.17087965 30.21764252 7.37744141 21.10986328 C6.05970869 17.95005281 4.74773459 14.78792471 3.4375 11.625 C3.07350098 10.75818604 2.70950195 9.89137207 2.33447266 8.99829102 C0 3.34195724 0 3.34195724 0 0 Z " fill="#0099FF" transform="translate(162,383)"/>
<path d="M0 0 C0.66 0 1.32 0 2 0 C3.31950098 3.04500227 4.63900086 6.09000501 5.95849609 9.13500977 C7.13457884 11.84905012 8.31068916 14.56307853 9.48681641 17.27709961 C12.3080496 23.78741043 15.12912374 30.29778978 17.94921875 36.80859375 C27.94265835 59.87882497 37.95414648 82.94122401 47.96386719 106.00439453 C50.42853326 111.6832129 52.89307828 117.36208379 55.35748291 123.04101562 C56.31230332 125.24123449 57.26717804 127.44142978 58.22210693 129.64160156 C60.59075984 135.09921721 62.95847075 140.55723774 65.32421875 146.01611328 C69.82514992 156.3990907 74.33585386 166.7775869 78.87701416 177.14303589 C81.0291169 182.05555509 83.17525995 186.97067346 85.3215332 191.88574219 C86.34917863 194.23529203 87.37925179 196.58378167 88.41186523 198.93115234 C89.8405709 202.17933676 91.26098311 205.43103134 92.6796875 208.68359375 C93.10454437 209.64353745 93.52940125 210.60348114 93.96713257 211.59251404 C95.90794693 216.06342584 97.52091429 220.09369448 98 225 C58.43045776 215.71422299 21.80964999 197.57701437 -9 171 C-10.11761719 170.04867187 -10.11761719 170.04867187 -11.2578125 169.078125 C-25.61192899 156.52435532 -39.38958291 142.91562563 -50 127 C-49.61873181 123.58603524 -48.55454103 120.57102116 -47.28767395 117.39283752 C-46.93316162 116.4974678 -46.57864929 115.60209808 -46.21339417 114.67959595 C-45.82433395 113.70968719 -45.43527374 112.73977844 -45.03442383 111.74047852 C-44.62451202 110.70885086 -44.21460022 109.67722321 -43.79226685 108.61433411 C-42.43467785 105.20085344 -41.07095411 101.78986051 -39.70703125 98.37890625 C-38.75844281 95.99833236 -37.81018 93.6176287 -36.86222839 91.23680115 C-34.87163422 86.23990428 -32.87831054 81.24411028 -30.88256836 76.24926758 C-28.58929646 70.50972518 -26.30018907 64.76853707 -24.01358968 59.02633339 C-21.80227178 53.47324091 -19.58877343 47.92102126 -17.37415123 42.36924553 C-16.43810941 40.02250977 -15.50246463 37.6756156 -14.56723976 35.32855415 C-9.84872287 23.49177825 -5.12720128 11.6669333 0 0 Z " fill="#0099FF" transform="translate(99,281)"/>
</svg>
